<?xml version="1.0" encoding="utf-8"?>
<!-- Generator: Adobe Illustrator 18.1.1, SVG Export Plug-In . SVG Version: 6.00 Build 0)  -->
<!DOCTYPE svg PUBLIC "-//W3C//DTD SVG 1.1 Tiny//EN" "http://www.w3.org/Graphics/SVG/1.1/DTD/svg11-tiny.dtd">
<svg version="1.1" baseProfile="tiny" id="Capa_1" xmlns="http://www.w3.org/2000/svg" xmlns:xlink="http://www.w3.org/1999/xlink"
	 x="0px" y="0px" viewBox="0 0 160 60" xml:space="preserve">
<rect fill="#39B54A" width="160" height="60"/>
<g>
	<path fill="#FFFFFF" d="M92,47.4h-24v-5l8.6-8.7c2.5-2.6,4.2-4.4,5-5.4s1.3-1.9,1.7-2.8s0.5-1.8,0.5-2.7c0-1.4-0.4-2.4-1.1-3.1
		s-1.8-1-3-1c-1.3,0-2.6,0.3-3.9,0.9s-2.6,1.5-3.9,2.6L68,17.5c1.7-1.4,3.1-2.5,4.2-3s2.3-1.1,3.6-1.4s2.8-0.5,4.4-0.5
		c2.1,0,4,0.4,5.7,1.2s2.9,1.9,3.8,3.3s1.4,3,1.4,4.8c0,1.6-0.3,3.1-0.8,4.4s-1.4,2.8-2.6,4.3s-3.2,3.5-6.2,6.2L77.1,41v0.3H92V47.4
		z"/>
</g>
</svg>
