<?xml version="1.0" encoding="utf-8"?>
<!-- Generator: Adobe Illustrator 18.1.1, SVG Export Plug-In . SVG Version: 6.00 Build 0)  -->
<!DOCTYPE svg PUBLIC "-//W3C//DTD SVG 1.1 Tiny//EN" "http://www.w3.org/Graphics/SVG/1.1/DTD/svg11-tiny.dtd">
<svg version="1.1" baseProfile="tiny" id="Capa_1" xmlns="http://www.w3.org/2000/svg" xmlns:xlink="http://www.w3.org/1999/xlink"
	 x="0px" y="0px" viewBox="0 0 160 60" xml:space="preserve">
<rect fill="#2E3192" width="160" height="60"/>
<g>
	<path fill="#FFFFFF" d="M90.9,20.5c0,2.1-0.6,4-1.9,5.5s-3.1,2.5-5.5,3.1v0.1c2.8,0.3,4.9,1.2,6.3,2.5s2.1,3.1,2.1,5.4
		c0,3.3-1.2,5.9-3.6,7.7s-5.8,2.8-10.2,2.8c-3.7,0-7-0.6-9.9-1.9v-6.2c1.3,0.7,2.8,1.2,4.4,1.6s3.2,0.6,4.7,0.6
		c2.4,0,4.2-0.4,5.3-1.2s1.7-2.1,1.7-3.9c0-1.6-0.7-2.8-2-3.4s-3.4-1-6.3-1h-2.6v-5.6h2.6c2.7,0,4.6-0.3,5.8-1s1.8-1.9,1.8-3.6
		c0-2.6-1.6-3.9-4.9-3.9c-1.1,0-2.3,0.2-3.4,0.6s-2.5,1-3.9,1.9l-3.4-5c3.1-2.3,6.9-3.4,11.2-3.4c3.5,0,6.3,0.7,8.4,2.2
		S90.9,18,90.9,20.5z"/>
</g>
</svg>
