<?xml version="1.0" encoding="utf-8"?>
<!-- Generator: Adobe Illustrator 18.1.1, SVG Export Plug-In . SVG Version: 6.00 Build 0)  -->
<!DOCTYPE svg PUBLIC "-//W3C//DTD SVG 1.1 Tiny//EN" "http://www.w3.org/Graphics/SVG/1.1/DTD/svg11-tiny.dtd">
<svg version="1.1" baseProfile="tiny" id="Capa_1" xmlns="http://www.w3.org/2000/svg" xmlns:xlink="http://www.w3.org/1999/xlink"
	 x="0px" y="0px" viewBox="0 0 40 40" xml:space="preserve">
<g>
	<path id="Blue_1_" fill="#3B5998" d="M37.8,40c1.2,0,2.2-1,2.2-2.2V2.2C40,1,39,0,37.8,0H2.2C1,0,0,1,0,2.2v35.6C0,39,1,40,2.2,40
		H37.8z"/>
	<path id="f" fill="#FFFFFF" d="M27.6,40V24.5h5.2l0.8-6h-6v-3.9c0-1.7,0.5-2.9,3-2.9l3.2,0V6.3C33.2,6.2,31.3,6,29.1,6
		c-4.6,0-7.8,2.8-7.8,8v4.5h-5.2v6h5.2V40H27.6z"/>
</g>
</svg>
