<?xml version="1.0" encoding="utf-8"?>
<!-- Generator: Adobe Illustrator 18.1.1, SVG Export Plug-In . SVG Version: 6.00 Build 0)  -->
<!DOCTYPE svg PUBLIC "-//W3C//DTD SVG 1.1//EN" "http://www.w3.org/Graphics/SVG/1.1/DTD/svg11.dtd">
<svg version="1.1" id="Capa_1" xmlns="http://www.w3.org/2000/svg" xmlns:xlink="http://www.w3.org/1999/xlink" x="0px" y="0px"
	 viewBox="0 0 200 115" enable-background="new 0 0 200 115" xml:space="preserve">
<g>
	<rect x="0.6" y="1.6" fill="#FFFFFF" width="198.7" height="21.9"/>
	<rect x="0.6" y="1.6" fill="none" stroke="#C6C6C5" stroke-miterlimit="10" width="198.7" height="21.9"/>
	<polygon fill="#A7A4A3" points="11.1,15.2 10.4,15.2 10.4,9.6 13.6,9.6 13.6,10.2 11.1,10.2 11.1,12.3 13.4,12.3 13.4,12.8 
		11.1,12.8 	"/>
	<path fill="#A7A4A3" d="M18,13.1c0,0.7-0.2,1.2-0.5,1.6c-0.3,0.4-0.8,0.6-1.4,0.6c-0.4,0-0.7-0.1-1-0.3c-0.3-0.2-0.5-0.4-0.7-0.8
		c-0.2-0.3-0.2-0.7-0.2-1.2c0-0.7,0.2-1.2,0.5-1.6c0.3-0.4,0.8-0.6,1.4-0.6c0.6,0,1.1,0.2,1.4,0.6C17.8,11.9,18,12.5,18,13.1
		 M14.8,13.1c0,0.5,0.1,0.9,0.3,1.2c0.2,0.3,0.5,0.4,0.9,0.4c0.4,0,0.7-0.1,0.9-0.4c0.2-0.3,0.3-0.7,0.3-1.2c0-0.5-0.1-0.9-0.3-1.2
		c-0.2-0.3-0.5-0.4-1-0.4c-0.4,0-0.7,0.1-0.9,0.4C14.9,12.2,14.8,12.6,14.8,13.1"/>
	<path fill="#A7A4A3" d="M21,11c0.2,0,0.4,0,0.5,0l-0.1,0.6c-0.2,0-0.3-0.1-0.5-0.1c-0.3,0-0.6,0.1-0.9,0.4c-0.2,0.3-0.4,0.6-0.4,1
		v2.2h-0.6V11h0.5l0.1,0.8h0c0.2-0.3,0.3-0.5,0.6-0.6C20.5,11,20.8,11,21,11"/>
	<path fill="#A7A4A3" d="M27.7,15.2v-2.7c0-0.3-0.1-0.6-0.2-0.8c-0.1-0.2-0.4-0.3-0.7-0.3c-0.4,0-0.7,0.1-0.9,0.3
		c-0.2,0.2-0.3,0.6-0.3,1v2.3H25v-2.7c0-0.3-0.1-0.6-0.2-0.8c-0.1-0.2-0.4-0.3-0.7-0.3c-0.4,0-0.7,0.1-0.9,0.4
		c-0.2,0.2-0.3,0.6-0.3,1.2v2.2h-0.6V11h0.5l0.1,0.6h0c0.1-0.2,0.3-0.4,0.5-0.5c0.2-0.1,0.5-0.2,0.7-0.2c0.7,0,1.1,0.2,1.3,0.7h0
		c0.1-0.2,0.3-0.4,0.5-0.5c0.2-0.1,0.5-0.2,0.8-0.2c0.5,0,0.8,0.1,1.1,0.4c0.2,0.2,0.4,0.6,0.4,1.2v2.7H27.7z"/>
	<polygon fill="#A7A4A3" points="32.4,15.2 31.7,15.2 31.7,9.6 34.8,9.6 34.8,10.2 32.4,10.2 32.4,12.3 34.7,12.3 34.7,12.8 
		32.4,12.8 	"/>
	<path fill="#A7A4A3" d="M35.6,9.9c0-0.1,0-0.3,0.1-0.3c0.1-0.1,0.2-0.1,0.3-0.1c0.1,0,0.2,0,0.3,0.1c0.1,0.1,0.1,0.2,0.1,0.3
		c0,0.1,0,0.2-0.1,0.3c-0.1,0.1-0.2,0.1-0.3,0.1c-0.1,0-0.2,0-0.3-0.1C35.7,10.1,35.6,10,35.6,9.9 M36.3,15.2h-0.6V11h0.6V15.2z"/>
	<path fill="#A7A4A3" d="M39.4,15.3c-0.6,0-1.1-0.2-1.5-0.6c-0.4-0.4-0.5-0.9-0.5-1.6c0-0.7,0.2-1.2,0.5-1.6
		c0.3-0.4,0.8-0.6,1.3-0.6c0.5,0,0.9,0.2,1.2,0.5c0.3,0.3,0.5,0.8,0.5,1.4v0.4h-2.9c0,0.5,0.1,0.9,0.4,1.1c0.2,0.3,0.6,0.4,1,0.4
		c0.5,0,0.9-0.1,1.3-0.3V15c-0.2,0.1-0.4,0.2-0.6,0.2C39.9,15.3,39.7,15.3,39.4,15.3 M39.2,11.5c-0.3,0-0.6,0.1-0.8,0.3
		c-0.2,0.2-0.3,0.5-0.4,0.9h2.2c0-0.4-0.1-0.7-0.3-0.9C39.8,11.6,39.6,11.5,39.2,11.5"/>
	<rect x="42" y="9.3" fill="#A7A4A3" width="0.6" height="5.9"/>
	<path fill="#A7A4A3" d="M46.9,14.7L46.9,14.7c-0.3,0.4-0.8,0.6-1.4,0.6c-0.5,0-1-0.2-1.3-0.6c-0.3-0.4-0.5-0.9-0.5-1.6
		c0-0.7,0.2-1.2,0.5-1.6c0.3-0.4,0.7-0.6,1.3-0.6c0.6,0,1,0.2,1.3,0.6h0.1l0-0.3l0-0.3V9.3h0.6v5.9H47L46.9,14.7z M45.6,14.8
		c0.4,0,0.7-0.1,0.9-0.4c0.2-0.2,0.3-0.6,0.3-1.1v-0.1c0-0.6-0.1-1-0.3-1.3c-0.2-0.3-0.5-0.4-0.9-0.4c-0.4,0-0.7,0.1-0.9,0.4
		c-0.2,0.3-0.3,0.7-0.3,1.2c0,0.5,0.1,0.9,0.3,1.2C44.9,14.6,45.2,14.8,45.6,14.8"/>
	<rect x="0.6" y="32.5" fill="#FFFFFF" width="198.7" height="48.5"/>
	<rect x="0.6" y="32.5" fill="none" stroke="#C6C6C5" stroke-miterlimit="10" width="198.7" height="48.5"/>
	<polygon fill="#A7A4A3" points="12.2,46.2 11.5,46.2 11.5,41.2 9.7,41.2 9.7,40.6 13.9,40.6 13.9,41.2 12.2,41.2 	"/>
	<path fill="#A7A4A3" d="M16.5,46.3c-0.6,0-1.1-0.2-1.5-0.6c-0.4-0.4-0.5-0.9-0.5-1.6c0-0.7,0.2-1.2,0.5-1.6
		c0.3-0.4,0.8-0.6,1.3-0.6c0.5,0,0.9,0.2,1.2,0.5c0.3,0.3,0.5,0.8,0.5,1.4v0.4h-2.9c0,0.5,0.1,0.9,0.4,1.1c0.2,0.3,0.6,0.4,1,0.4
		c0.5,0,0.9-0.1,1.3-0.3V46c-0.2,0.1-0.4,0.2-0.6,0.2C17,46.2,16.7,46.3,16.5,46.3 M16.3,42.4c-0.3,0-0.6,0.1-0.8,0.3
		c-0.2,0.2-0.3,0.5-0.4,0.9h2.2c0-0.4-0.1-0.7-0.3-0.9C16.9,42.6,16.6,42.4,16.3,42.4"/>
	<polygon fill="#A7A4A3" points="20.1,44 18.6,42 19.3,42 20.5,43.6 21.6,42 22.3,42 20.8,44 22.3,46.2 21.6,46.2 20.5,44.5 
		19.3,46.2 18.6,46.2 	"/>
	<path fill="#A7A4A3" d="M24.5,45.7c0.1,0,0.2,0,0.3,0c0.1,0,0.2,0,0.2-0.1v0.5c-0.1,0-0.2,0.1-0.3,0.1c-0.1,0-0.3,0-0.4,0
		c-0.8,0-1.2-0.4-1.2-1.3v-2.5h-0.6v-0.3l0.6-0.3l0.3-0.9h0.4v1h1.2v0.5h-1.2V45c0,0.3,0.1,0.4,0.2,0.6
		C24.2,45.7,24.3,45.7,24.5,45.7"/>
	<path fill="#A7A4A3" d="M31.6,46.2l-0.7-1.8h-2.2L28,46.2h-0.7l2.2-5.6h0.5l2.2,5.6H31.6z M30.7,43.8L30,42.1
		c-0.1-0.2-0.2-0.5-0.3-0.8c-0.1,0.2-0.1,0.5-0.2,0.8l-0.7,1.7H30.7z"/>
	<path fill="#A7A4A3" d="M34.8,41.9c0.2,0,0.4,0,0.5,0l-0.1,0.6c-0.2,0-0.3-0.1-0.5-0.1c-0.3,0-0.6,0.1-0.9,0.4
		c-0.2,0.3-0.4,0.6-0.4,1v2.2h-0.6V42h0.5l0.1,0.8h0c0.2-0.3,0.3-0.5,0.6-0.6C34.3,42,34.6,41.9,34.8,41.9"/>
	<path fill="#A7A4A3" d="M37.9,46.3c-0.6,0-1.1-0.2-1.5-0.6c-0.4-0.4-0.5-0.9-0.5-1.6c0-0.7,0.2-1.2,0.5-1.6
		c0.3-0.4,0.8-0.6,1.3-0.6c0.5,0,0.9,0.2,1.2,0.5c0.3,0.3,0.5,0.8,0.5,1.4v0.4h-2.9c0,0.5,0.1,0.9,0.4,1.1c0.2,0.3,0.6,0.4,1,0.4
		c0.5,0,0.9-0.1,1.3-0.3V46c-0.2,0.1-0.4,0.2-0.6,0.2C38.4,46.2,38.2,46.3,37.9,46.3 M37.7,42.4c-0.3,0-0.6,0.1-0.8,0.3
		c-0.2,0.2-0.3,0.5-0.4,0.9h2.2c0-0.4-0.1-0.7-0.3-0.9C38.3,42.6,38.1,42.4,37.7,42.4"/>
	<path fill="#A7A4A3" d="M43.1,46.2L43,45.6h0c-0.2,0.3-0.4,0.4-0.6,0.5c-0.2,0.1-0.5,0.1-0.8,0.1c-0.4,0-0.7-0.1-1-0.3
		c-0.2-0.2-0.4-0.5-0.4-0.9c0-0.8,0.7-1.3,2-1.3l0.7,0v-0.3c0-0.3-0.1-0.6-0.2-0.7c-0.1-0.2-0.4-0.2-0.7-0.2c-0.3,0-0.7,0.1-1.2,0.3
		l-0.2-0.5c0.2-0.1,0.4-0.2,0.7-0.3c0.2-0.1,0.5-0.1,0.7-0.1c0.5,0,0.9,0.1,1.1,0.3c0.2,0.2,0.4,0.6,0.4,1.1v2.9H43.1z M41.7,45.7
		c0.4,0,0.7-0.1,0.9-0.3c0.2-0.2,0.3-0.5,0.3-0.9v-0.4l-0.6,0c-0.5,0-0.9,0.1-1.1,0.2c-0.2,0.1-0.3,0.4-0.3,0.6
		c0,0.2,0.1,0.4,0.2,0.5C41.2,45.7,41.4,45.7,41.7,45.7"/>
	<path fill="#FFFFFF" d="M143.2,112.9c-0.5,0-0.9-0.5-0.9-1.1V92.4c0-0.6,0.4-1.1,0.9-1.1h54.6c0.5,0,0.9,0.5,0.9,1.1v19.4
		c0,0.6-0.4,1.1-0.9,1.1H143.2z"/>
	<path fill="#C6C6C5" d="M197.9,91.8c0.2,0,0.4,0.3,0.4,0.6v19.4c0,0.4-0.2,0.6-0.4,0.6h-54.6c-0.2,0-0.4-0.3-0.4-0.6V92.4
		c0-0.4,0.2-0.6,0.4-0.6H197.9 M197.9,90.8h-54.6c-0.8,0-1.4,0.7-1.4,1.6v19.4c0,0.9,0.6,1.6,1.4,1.6h54.6c0.8,0,1.4-0.7,1.4-1.6
		V92.4C199.3,91.5,198.7,90.8,197.9,90.8"/>
	<path fill="#C6C6C5" d="M162.9,105.3h-0.7l-2.8-4.2h0c0,0.5,0.1,1,0.1,1.4v2.9H159v-5.1h0.7l2.8,4.2h0c0-0.1,0-0.3,0-0.6
		c0-0.3,0-0.6,0-0.7v-2.9h0.6V105.3z"/>
	<path fill="#C6C6C5" d="M167.5,103.4c0,0.6-0.2,1.1-0.5,1.4c-0.3,0.3-0.7,0.5-1.3,0.5c-0.3,0-0.6-0.1-0.9-0.2
		c-0.3-0.2-0.5-0.4-0.6-0.7c-0.1-0.3-0.2-0.6-0.2-1c0-0.6,0.2-1.1,0.5-1.4c0.3-0.3,0.7-0.5,1.3-0.5c0.5,0,1,0.2,1.3,0.5
		C167.4,102.3,167.5,102.8,167.5,103.4 M164.6,103.4c0,0.5,0.1,0.9,0.3,1.1c0.2,0.3,0.5,0.4,0.9,0.4c0.4,0,0.7-0.1,0.9-0.4
		c0.2-0.3,0.3-0.6,0.3-1.1c0-0.5-0.1-0.8-0.3-1.1c-0.2-0.3-0.5-0.4-0.9-0.4c-0.4,0-0.7,0.1-0.9,0.4
		C164.7,102.5,164.6,102.9,164.6,103.4"/>
	<path fill="#C6C6C5" d="M170.2,101.4c0.2,0,0.3,0,0.5,0l-0.1,0.5c-0.2,0-0.3-0.1-0.4-0.1c-0.3,0-0.6,0.1-0.8,0.4
		c-0.2,0.2-0.3,0.6-0.3,0.9v2h-0.6v-3.8h0.5l0.1,0.7h0c0.1-0.2,0.3-0.4,0.5-0.6C169.8,101.5,170,101.4,170.2,101.4"/>
	<path fill="#C6C6C5" d="M176.2,105.3v-2.5c0-0.3-0.1-0.5-0.2-0.7c-0.1-0.2-0.3-0.2-0.6-0.2c-0.4,0-0.6,0.1-0.8,0.3
		c-0.2,0.2-0.3,0.5-0.3,0.9v2.1h-0.6v-2.5c0-0.3-0.1-0.5-0.2-0.7c-0.1-0.2-0.3-0.2-0.6-0.2c-0.4,0-0.6,0.1-0.8,0.3s-0.3,0.6-0.3,1.1
		v2h-0.6v-3.8h0.5l0.1,0.5h0c0.1-0.2,0.3-0.3,0.5-0.4c0.2-0.1,0.4-0.2,0.7-0.2c0.6,0,1,0.2,1.2,0.6h0c0.1-0.2,0.3-0.4,0.5-0.5
		s0.5-0.2,0.7-0.2c0.4,0,0.8,0.1,1,0.3c0.2,0.2,0.3,0.6,0.3,1.1v2.5H176.2z"/>
	<path fill="#C6C6C5" d="M180.3,105.3l-0.1-0.5h0c-0.2,0.2-0.4,0.4-0.6,0.5c-0.2,0.1-0.4,0.1-0.7,0.1c-0.4,0-0.7-0.1-0.9-0.3
		c-0.2-0.2-0.3-0.5-0.3-0.8c0-0.8,0.6-1.2,1.8-1.2l0.6,0v-0.2c0-0.3-0.1-0.5-0.2-0.7c-0.1-0.1-0.3-0.2-0.6-0.2
		c-0.3,0-0.7,0.1-1.1,0.3l-0.2-0.4c0.2-0.1,0.4-0.2,0.6-0.2c0.2-0.1,0.4-0.1,0.7-0.1c0.5,0,0.8,0.1,1,0.3c0.2,0.2,0.3,0.5,0.3,1v2.6
		H180.3z M179,104.9c0.4,0,0.6-0.1,0.8-0.3c0.2-0.2,0.3-0.5,0.3-0.8v-0.3l-0.6,0c-0.5,0-0.8,0.1-1,0.2c-0.2,0.1-0.3,0.3-0.3,0.6
		c0,0.2,0.1,0.4,0.2,0.5C178.6,104.8,178.8,104.9,179,104.9"/>
	<rect x="181.9" y="99.9" fill="#C6C6C5" width="0.6" height="5.4"/>
</g>
</svg>
