<?xml version="1.0" encoding="utf-8"?>
<!-- Generator: Adobe Illustrator 18.1.1, SVG Export Plug-In . SVG Version: 6.00 Build 0)  -->
<!DOCTYPE svg PUBLIC "-//W3C//DTD SVG 1.1 Tiny//EN" "http://www.w3.org/Graphics/SVG/1.1/DTD/svg11-tiny.dtd">
<svg version="1.1" baseProfile="tiny" id="Capa_1" xmlns="http://www.w3.org/2000/svg" xmlns:xlink="http://www.w3.org/1999/xlink"
	 x="0px" y="0px" viewBox="0 0 160 100" xml:space="preserve">
<g>
	<rect x="3" y="2.9" fill="#C6C5C5" width="154.1" height="94.3"/>
	<polyline fill="#FFFFFF" points="4.8,27.1 155.3,76.4 155.6,75.6 5.1,26.4 	"/>
	<polyline fill="#FFFFFF" points="155.3,26 4.4,75.6 4.7,76.4 155.6,26.7 	"/>
	<path fill="#C6C5C5" d="M102.1,51.3c0,12.1-9.8,21.9-21.9,21.9c-12.1,0-21.9-9.8-21.9-21.9c0-12.1,9.8-21.9,21.9-21.9
		C92.3,29.4,102.1,39.2,102.1,51.3"/>
	<path fill="#FFFFFF" d="M102.1,51.3h-0.4c0,5.9-2.4,11.3-6.3,15.2c-3.9,3.9-9.3,6.3-15.2,6.3c-5.9,0-11.3-2.4-15.2-6.3
		c-3.9-3.9-6.3-9.3-6.3-15.2c0-5.9,2.4-11.3,6.3-15.2c3.9-3.9,9.3-6.3,15.2-6.3c5.9,0,11.3,2.4,15.2,6.3c3.9,3.9,6.3,9.3,6.3,15.2
		H102.1h0.4c0-12.3-10-22.3-22.3-22.3c-12.3,0-22.3,10-22.3,22.3c0,12.3,10,22.3,22.3,22.3c12.3,0,22.3-10,22.3-22.3H102.1z"/>
	<polygon fill="#FFFFFF" points="66.9,54.9 66.9,48 68.8,48 68.8,53.4 71.4,53.4 71.4,54.9 	"/>
	<path fill="#FFFFFF" d="M78.9,51.5c0,1.2-0.3,2-0.8,2.6c-0.6,0.6-1.4,0.9-2.5,0.9c-1.1,0-1.9-0.3-2.5-0.9c-0.6-0.6-0.9-1.5-0.9-2.6
		c0-1.1,0.3-2,0.9-2.6c0.6-0.6,1.4-0.9,2.5-0.9c1.1,0,1.9,0.3,2.5,0.9C78.7,49.4,78.9,50.3,78.9,51.5 M74.2,51.5c0,1.3,0.5,2,1.4,2
		c0.5,0,0.8-0.2,1-0.5c0.2-0.3,0.3-0.8,0.3-1.5c0-0.7-0.1-1.2-0.3-1.5c-0.2-0.3-0.6-0.5-1-0.5C74.7,49.4,74.2,50.1,74.2,51.5"/>
	<path fill="#FFFFFF" d="M82.9,50.9h3v3.7c-0.8,0.3-1.7,0.4-2.7,0.4c-1.1,0-1.9-0.3-2.5-0.9c-0.6-0.6-0.9-1.5-0.9-2.6
		c0-1.1,0.3-2,0.9-2.6c0.6-0.6,1.5-0.9,2.7-0.9c0.4,0,0.8,0,1.2,0.1c0.4,0.1,0.7,0.2,1,0.3l-0.6,1.5c-0.5-0.2-1-0.4-1.6-0.4
		c-0.5,0-1,0.2-1.3,0.5c-0.3,0.4-0.4,0.9-0.4,1.5c0,0.6,0.1,1.1,0.4,1.5c0.3,0.3,0.7,0.5,1.2,0.5c0.3,0,0.5,0,0.8-0.1v-1.1h-1.2
		V50.9z"/>
	<path fill="#FFFFFF" d="M93.7,51.5c0,1.2-0.3,2-0.8,2.6c-0.6,0.6-1.4,0.9-2.5,0.9c-1.1,0-1.9-0.3-2.5-0.9c-0.6-0.6-0.9-1.5-0.9-2.6
		c0-1.1,0.3-2,0.9-2.6c0.6-0.6,1.4-0.9,2.5-0.9c1.1,0,1.9,0.3,2.5,0.9C93.4,49.4,93.7,50.3,93.7,51.5 M89,51.5c0,1.3,0.5,2,1.4,2
		c0.5,0,0.8-0.2,1-0.5c0.2-0.3,0.3-0.8,0.3-1.5c0-0.7-0.1-1.2-0.3-1.5c-0.2-0.3-0.6-0.5-1-0.5C89.5,49.4,89,50.1,89,51.5"/>
</g>
<rect id="SVGID_1_" x="-533" y="-350" fill="none" width="1224" height="792"/>
</svg>
