<?xml version="1.0" encoding="utf-8"?>
<!-- Generator: Adobe Illustrator 18.1.1, SVG Export Plug-In . SVG Version: 6.00 Build 0)  -->
<!DOCTYPE svg PUBLIC "-//W3C//DTD SVG 1.1//EN" "http://www.w3.org/Graphics/SVG/1.1/DTD/svg11.dtd">
<svg version="1.1" id="Capa_1" xmlns="http://www.w3.org/2000/svg" xmlns:xlink="http://www.w3.org/1999/xlink" x="0px" y="0px"
	 viewBox="0 0 600 100" enable-background="new 0 0 600 100" xml:space="preserve">
<g>
	<rect x="6.8" y="0.5" fill="#747273" width="174.4" height="99"/>
	<path fill="#868686" d="M80.8,44.7c0-2.1,1.7-3.8,3.8-3.8s3.8,1.7,3.8,3.8c0,2.1-1.7,3.8-3.8,3.8S80.8,46.8,80.8,44.7 M99.9,44.8
		l-6.3,8.9l-3.4-3.5l-9.6,10.9h30L99.9,44.8z M114.6,64.9H75V37.7h39.7V64.9z M120.2,32.1H69.3v38.4h50.9V32.1z M98.7,19
		c0,2.2-1.8,3.9-3.9,3.9c-2.2,0-3.9-1.8-3.9-3.9c0-2.2,1.8-3.9,3.9-3.9C97,15.1,98.7,16.9,98.7,19 M100.9,22.5
		c-0.5,0.9-1.2,1.7-2.1,2.3l4,4.1h4.3L100.9,22.5z M88.7,22.5l-6.2,6.4h4.3l4-4.1C89.9,24.2,89.2,23.4,88.7,22.5"/>
	<rect x="6.8" y="60.7" fill="#9C9B9B" width="174.4" height="38.8"/>
	<rect x="38" y="68.4" fill="#C5C4C5" width="103.6" height="3"/>
	<rect x="38" y="75.2" fill="#C5C4C5" width="98.9" height="3"/>
	<rect x="38" y="82" fill="#C5C4C5" width="109.1" height="3"/>
	<rect x="38" y="88.8" fill="#C5C4C5" width="48.2" height="3"/>
	<rect x="212.5" y="0.5" fill="#747273" width="174.4" height="99"/>
	<path fill="#868686" d="M286.5,44.7c0-2.1,1.7-3.8,3.8-3.8s3.8,1.7,3.8,3.8c0,2.1-1.7,3.8-3.8,3.8S286.5,46.8,286.5,44.7
		 M305.7,44.8l-6.3,8.9l-3.4-3.5l-9.6,10.9h30L305.7,44.8z M320.3,64.9h-39.7V37.7h39.7V64.9z M326,32.1h-50.9v38.4H326V32.1z
		 M304.4,19c0,2.2-1.8,3.9-3.9,3.9s-3.9-1.8-3.9-3.9c0-2.2,1.8-3.9,3.9-3.9S304.4,16.9,304.4,19 M306.6,22.5
		c-0.5,0.9-1.2,1.7-2.1,2.3l4,4.1h4.3L306.6,22.5z M294.4,22.5l-6.2,6.4h4.3l4-4.1C295.6,24.2,294.9,23.4,294.4,22.5"/>
	<rect x="212.5" y="60.7" fill="#9C9B9B" width="174.4" height="38.8"/>
	<rect x="243.7" y="68.4" fill="#C5C4C5" width="103.6" height="3"/>
	<rect x="243.7" y="75.2" fill="#C5C4C5" width="98.9" height="3"/>
	<rect x="243.7" y="82" fill="#C5C4C5" width="109.1" height="3"/>
	<rect x="243.7" y="88.8" fill="#C5C4C5" width="48.2" height="3"/>
	<rect x="418.8" y="0.5" fill="#747273" width="174.4" height="99"/>
	<path fill="#868686" d="M492.8,44.7c0-2.1,1.7-3.8,3.8-3.8s3.8,1.7,3.8,3.8c0,2.1-1.7,3.8-3.8,3.8S492.8,46.8,492.8,44.7
		 M511.9,44.8l-6.3,8.9l-3.4-3.5l-9.6,10.9h30L511.9,44.8z M526.6,64.9h-39.7V37.7h39.7V64.9z M532.2,32.1h-50.9v38.4h50.9V32.1z
		 M510.7,19c0,2.2-1.8,3.9-3.9,3.9s-3.9-1.8-3.9-3.9c0-2.2,1.8-3.9,3.9-3.9S510.7,16.9,510.7,19 M512.9,22.5
		c-0.5,0.9-1.2,1.7-2.1,2.3l4,4.1h4.3L512.9,22.5z M500.6,22.5l-6.2,6.4h4.3l4-4.1C501.9,24.2,501.1,23.4,500.6,22.5"/>
	<rect x="418.8" y="60.7" fill="#9C9B9B" width="174.4" height="38.8"/>
	<rect x="450" y="68.4" fill="#C5C4C5" width="103.6" height="3"/>
	<rect x="450" y="75.2" fill="#C5C4C5" width="98.9" height="3"/>
	<rect x="450" y="82" fill="#C5C4C5" width="109.1" height="3"/>
	<rect x="450" y="88.8" fill="#C5C4C5" width="48.2" height="3"/>
</g>
</svg>
